<?xml version="1.0" encoding="utf-8"?>
<svg viewBox="0 0 595.28 594.708" xmlns="http://www.w3.org/2000/svg">
  <path d="M 0.576 -0.932 L 595.846 -0.932 L 595.846 593.776 L 0.576 593.776 Z" style="fill: rgb(255, 200, 88);"/>
  <g transform="matrix(35.774509, 0, 0, 35.774509, -481.25415, -518.133728)" style="">
    <path fill="#FFF" d="M20.5 27.8l4.5-5.7c.1-.2.1-.5-.2-.5H23c-.2 0-.3-.1-.2-.3l1.6-2.8c.1-.2.1-.5-.2-.5H21c-.2 0-.4.2-.5.3l-1.4 5c-.1.2.1.3.3.3H21c.2 0 .3.2.2.3 0 0-1.4 3.5-1.4 3.6 0 .2.2.4.4.4.1 0 .2 0 .3-.1-.1.1-.1 0 0 0z"/>
  </g>
</svg>