<?xml version="1.0" encoding="utf-8"?>
<svg viewBox="0 0 32 32" xmlns="http://www.w3.org/2000/svg">
  <path fill="#FFC857" d="M6 5.5h20v21H6z"/>
  <ellipse fill="#FFC857" cx="16" cy="26.5" rx="10" ry="3.5"/>
  <ellipse fill="#FFC857" cx="16" cy="5.5" rx="10" ry="3.5"/>
  <ellipse fill="#FFF" cx="16" cy="5.5" rx="10" ry="3.5" opacity=".25"/>
  <ellipse cx="16" cy="5.3" rx="7" ry="1.8" opacity=".25"/>
  <g id="_x33_46-typo3" transform="matrix(0.026765, 0, 0, 0.026765, 9.377494, 11.617097)" style="">
    <g>
      <g>
        <path d="M209.846,73.644c0-25.36,5.545-33.268,14.273-40.455c-71.361,8.729-153.299,34.91-181.022,68.179     c-5.543,7.906-9.549,21.357-9.549,38.094c0,106.271,109.661,346.538,189.031,346.538c37.272,0,99.906-61.094,150.631-142.722     c-7.189,2.361-11.913,2.361-18.996,2.361C295.48,345.639,209.846,141.822,209.846,73.644L209.846,73.644z M335.935,26.001     c-30.907,0-42.816,5.545-42.816,37.272c0,68.178,55.241,203.816,104.423,203.816c27.006,0,80.912-102.369,80.912-187.183     C478.453,37.912,409.659,26.001,335.935,26.001z" style="fill: rgb(255, 255, 255);"/>
      </g>
    </g>
  </g>
  <g id="Layer_1" transform="matrix(1, 0, 0, 1, -261.175282, -242.175107)"/>
</svg>