<?xml version="1.0" encoding="utf-8"?>
<svg viewBox="0 0 32 32" xmlns="http://www.w3.org/2000/svg">
  <path fill="#FFC857" d="M6 5.5h20v21H6z"/>
  <ellipse fill="#FFC857" cx="16" cy="26.5" rx="10" ry="3.5"/>
  <ellipse fill="#FFC857" cx="16" cy="5.5" rx="10" ry="3.5"/>
  <ellipse fill="#FFF" cx="16" cy="5.5" rx="10" ry="3.5" opacity=".25"/>
  <ellipse cx="16" cy="5.3" rx="7" ry="1.8" opacity=".25"/>
  <g id="Layer_1" transform="matrix(1, 0, 0, 1, -261.175282, -242.175107)"/>
  <g transform="matrix(0.128125, 0, 0, 0.128125, 9.68348, 13.221319)" style="">
    <path d="M 99.375 84.956 C 99.375 84.956 99.178 66.022 98.021 64.06 C 96.3 61.137 92.292 59.128 84.851 56.019 C 77.435 52.918 75.064 50.303 75.064 44.703 C 75.064 41.339 77.328 42.439 78.324 36.284 C 78.736 33.729 80.736 36.241 81.119 30.412 C 81.119 28.088 80.027 27.509 80.027 27.509 C 80.027 27.509 80.582 24.072 80.798 21.425 C 81.068 18.127 79.136 9.61 68.843 9.61 C 58.548 9.61 56.618 18.128 56.888 21.425 C 57.105 24.072 57.658 27.509 57.658 27.509 C 57.658 27.509 56.568 28.088 56.568 30.412 C 56.951 36.241 58.949 33.729 59.363 36.284 C 60.357 42.439 62.623 41.34 62.623 44.703 C 62.623 48.51 61.521 50.938 58.486 53.078 C 74.689 61.189 76.861 62.842 76.861 70.093 L 76.861 84.956 L 99.375 84.956 Z M 50.492 58.833 C 40.601 54.699 37.441 51.212 37.441 43.747 C 37.441 39.264 40.461 40.728 41.787 32.519 C 42.336 29.115 45.004 32.463 45.514 24.69 C 45.514 21.592 44.059 20.822 44.059 20.822 C 44.059 20.822 44.799 16.239 45.088 12.71 C 45.447 8.313 42.873 -3.044 29.146 -3.044 C 15.422 -3.044 12.846 8.313 13.207 12.71 C 13.496 16.239 14.234 20.822 14.234 20.822 C 14.234 20.822 12.779 21.592 12.779 24.69 C 13.291 32.463 15.957 29.115 16.508 32.519 C 17.834 40.727 20.854 39.263 20.854 43.747 C 20.854 51.212 17.692 54.699 7.803 58.833 C 4.789 60.093 -0.625 62.044 -0.625 66.739 L -0.625 84.956 L 68.844 84.956 C 68.844 84.956 68.844 74.18 68.844 71.297 C 68.844 67.015 60.412 62.981 50.492 58.833 Z" style="fill: rgb(255, 255, 255);"/>
  </g>
  <g transform="matrix(0.128125, 0, 0, 0.128125, 9.68348, 13.221319)" style=""/>
  <g transform="matrix(0.128125, 0, 0, 0.128125, 9.68348, 13.221319)" style=""/>
  <g transform="matrix(0.128125, 0, 0, 0.128125, 9.68348, 13.221319)" style=""/>
  <g transform="matrix(0.128125, 0, 0, 0.128125, 9.68348, 13.221319)" style=""/>
  <g transform="matrix(0.128125, 0, 0, 0.128125, 9.68348, 13.221319)" style=""/>
  <g transform="matrix(0.128125, 0, 0, 0.128125, 9.68348, 13.221319)" style=""/>
  <g transform="matrix(0.128125, 0, 0, 0.128125, 9.68348, 13.221319)" style=""/>
  <g transform="matrix(0.128125, 0, 0, 0.128125, 9.68348, 13.221319)" style=""/>
  <g transform="matrix(0.128125, 0, 0, 0.128125, 9.68348, 13.221319)" style=""/>
  <g transform="matrix(0.128125, 0, 0, 0.128125, 9.68348, 13.221319)" style=""/>
  <g transform="matrix(0.128125, 0, 0, 0.128125, 9.68348, 13.221319)" style=""/>
  <g transform="matrix(0.128125, 0, 0, 0.128125, 9.68348, 13.221319)" style=""/>
  <g transform="matrix(0.128125, 0, 0, 0.128125, 9.68348, 13.221319)" style=""/>
  <g transform="matrix(0.128125, 0, 0, 0.128125, 9.68348, 13.221319)" style=""/>
  <g transform="matrix(0.128125, 0, 0, 0.128125, 9.68348, 13.221319)" style=""/>
</svg>